<svg width="512" height="512" viewBox="0 0 512 512" version="1.1" xmlns="http://www.w3.org/2000/svg" xmlns:xlink="http://www.w3.org/1999/xlink">
<title>planet-earth</title>
<desc>Created using Figma</desc>
<g id="Canvas" transform="translate(-2330 944)">
<g id="planet-earth">
<g id="Vector">
<use xlink:href="#path0_fill" transform="translate(2330 -944)" fill="#285680"/>
</g>
<g id="Vector">
<use xlink:href="#path1_fill" transform="translate(2477.58 -944)" fill="#24AE5F"/>
</g>
<g id="Vector">
<use xlink:href="#path2_fill" transform="translate(2374.13 -634.712)" fill="#FAC176"/>
</g>
<g id="Vector">
<use xlink:href="#path3_fill" transform="translate(2330 -790.728)" fill="#88C057"/>
</g>
<g id="Vector">
<use xlink:href="#path4_fill" transform="translate(2374.14 -581.522)" fill="#A3D775"/>
</g>
<g id="Group">
<g id="Vector">
<use xlink:href="#path5_fill" transform="translate(2380.04 -634.71)" fill="#88C057"/>
</g>
<g id="Vector">
<use xlink:href="#path6_fill" transform="translate(2630.14 -924.991)" fill="#88C057"/>
</g>
</g>
<g id="Vector">
<use xlink:href="#path7_fill" transform="translate(2674.28 -910.404)" fill="#ACCD8E"/>
</g>
<g id="Group">
<g id="Vector">
<use xlink:href="#path8_fill" transform="translate(2537 -717)" fill="#FFFFFF"/>
</g>
<g id="Ellipse" filter="url(#filter0_d)">
<use xlink:href="#path9_fill" transform="translate(2429 -769)" fill="#FFFFFF"/>
</g>
<g id="Ellipse" filter="url(#filter1_d)">
<use xlink:href="#path9_fill" transform="translate(2674 -769)" fill="#FFFFFF"/>
</g>
<g id="Ellipse">
<use xlink:href="#path10_fill" transform="translate(2682 -754)" fill="#505050"/>
</g>
<g id="Ellipse">
<use xlink:href="#path10_fill" transform="translate(2437 -754)" fill="#505050"/>
</g>
</g>
</g>
</g>
<defs>
<filter id="filter0_d" filterUnits="userSpaceOnUse" x="2425" y="-769" width="58" height="58" color-interpolation-filters="sRGB">
<feFlood flood-opacity="0" result="BackgroundImageFix"/>
<feColorMatrix in="SourceAlpha" type="matrix" values="0 0 0 0 0 0 0 0 0 0 0 0 0 0 0 0 0 0 255 0"/>
<feOffset dx="0" dy="4"/>
<feGaussianBlur stdDeviation="2"/>
<feColorMatrix type="matrix" values="0 0 0 0 0 0 0 0 0 0 0 0 0 0 0 0 0 0 0.25 0"/>
<feBlend mode="normal" in2="BackgroundImageFix" result="effect1_dropShadow"/>
<feBlend mode="normal" in="SourceGraphic" in2="effect1_dropShadow" result="shape"/>
</filter>
<filter id="filter1_d" filterUnits="userSpaceOnUse" x="2670" y="-769" width="58" height="58" color-interpolation-filters="sRGB">
<feFlood flood-opacity="0" result="BackgroundImageFix"/>
<feColorMatrix in="SourceAlpha" type="matrix" values="0 0 0 0 0 0 0 0 0 0 0 0 0 0 0 0 0 0 255 0"/>
<feOffset dx="0" dy="4"/>
<feGaussianBlur stdDeviation="2"/>
<feColorMatrix type="matrix" values="0 0 0 0 0 0 0 0 0 0 0 0 0 0 0 0 0 0 0.25 0"/>
<feBlend mode="normal" in2="BackgroundImageFix" result="effect1_dropShadow"/>
<feBlend mode="normal" in="SourceGraphic" in2="effect1_dropShadow" result="shape"/>
</filter>
<path id="path0_fill" d="M 512 256C 512 397.383 397.383 512 256 512C 114.617 512 0 397.383 0 256C 0 114.617 114.617 4.75211e-11 256 4.75211e-11C 397.383 4.75211e-11 512 114.617 512 256Z"/>
<path id="path1_fill" d="M 108.417 4.74975e-11C 72.8417 4.74975e-11 38.9787 7.265 8.19671 20.374C 6.79271 28.76 -0.207287 43.07 0.0047128 47.625C 0.993713 47.819 65.0907 -17.699 57.1367 26.527C 52.0077 54.996 -0.384288 54.828 1.86671 83.491C 56.9157 105.074 76.1157 42.505 122.867 42.769C 138.465 42.848 178.41 18.193 186.037 23.216C 216.898 43.546 178.975 115.614 155.37 91.63C 132.665 68.917 119.018 77.427 120.475 112.834C 132.286 113.355 118.559 101.473 129.179 112.834C 140.867 125.343 136.647 150.528 120.475 156.31C 104.206 162.127 40.3467 113.143 56.0337 150.272C 73.2827 191.479 4.36572 223.32 73.9357 206.707C 106.739 198.85 95.8457 223.806 111.312 235.714C 129.744 249.865 121.578 216.17 135.023 221.299C 154.576 228.864 131.669 248.356 162.283 234.205C 198.202 217.821 184.714 243.368 195.704 260.07C 216.325 291.249 267.004 321.175 293.567 279.967C 299.835 270.257 295.818 193.395 335.242 244.957C 360.277 277.707 351.679 206.257 355.069 187.498C 325.108 79.387 226.062 4.74975e-11 108.417 4.74975e-11Z"/>
<path id="path2_fill" d="M 246.458 62.19L 199.248 26.809L 167.601 28.054L 134.771 17.726L 109.074 1.46484e-06L 50.786 13.471L 26.748 25.115L -5.79834e-07 61.14L 9.472 103.371C 12.173 106.867 14.972 110.274 17.849 113.62L 67.354 136.731L 100.766 141.251L 120.646 182.052L 121.246 186.157C 149.424 196.821 179.949 202.709 211.861 202.709C 233.886 202.709 255.249 199.928 275.631 194.702L 282.358 154.589L 312.893 129.801L 325.578 90.245L 261.825 89.98L 246.458 62.19Z"/>
<path id="path3_fill" d="M 3.31 143.749C 4.528 143.643 4.687 143.537 4.793 143.431C 16.242 131.99 25.785 130.075 35.319 112.905C 44.862 95.744 33.412 95.744 35.319 67.125C 37.226 38.506 33.412 51.862 35.319 21.336C 36.008 10.363 34.851 4.31599 21.504 -5.00488e-06C 7.706 31.453 2.6077e-11 66.181 2.6077e-11 102.727C 2.6077e-11 116.692 1.156 130.384 3.31 143.749Z"/>
<path id="path4_fill" d="M 220.691 105.384C 211.131 104.651 175.82 93.617 167.725 78.901C 159.63 64.185 141.975 39.177 141.242 43.591C 140.739 46.592 60.814 19.377 5.906 3.90625e-06L 1.0376e-06 7.95401L 9.463 50.185C 12.173 53.672 14.963 57.088 17.84 60.425L 67.354 83.544L 100.766 88.055L 120.646 128.856L 121.237 132.961C 149.415 143.634 179.949 149.522 211.861 149.522C 233.877 149.522 255.24 146.741 275.631 141.507L 280.725 111.096C 276.232 109.692 271.05 107.839 264.827 105.385C 240.553 95.824 230.251 106.117 220.691 105.384Z"/>
<path id="path5_fill" d="M 306.99 129.8L 319.675 90.244L 255.922 89.979L 240.553 62.19L 193.343 26.809L 161.696 28.054L 128.866 17.726L 103.169 -1.48926e-05L 44.88 13.471L 20.842 25.115L -1.25122e-06 53.187C 54.908 72.564 134.841 99.779 135.345 96.778C 136.078 92.364 153.733 117.382 161.828 132.088C 169.914 146.804 205.224 157.838 214.794 158.571C 224.354 159.313 234.656 149.011 258.932 158.571C 265.155 161.025 270.337 162.879 274.83 164.282L 276.454 154.58L 306.99 129.8Z"/>
<path id="path6_fill" d="M 52.304 2.28882e-07C 50.591 32.309 49.329 55.658 49.329 55.658L 9.76562e-06 104.987C 9.76562e-06 104.987 46.248 171.265 49.329 178.971C 52.41 186.677 90.942 195.929 98.649 191.303C 106.364 186.677 135.645 162.013 147.978 178.971C 156.558 190.773 155.455 201.075 160.734 208.323C 164.38 208.385 168.917 210.83 174.584 216.541C 182.599 218.933 191.736 221.299 199.875 223.268C 202.576 207.467 200.572 179.28 202.523 168.484C 181.257 91.762 125.114 29.678 52.304 2.28882e-07Z"/>
<path id="path7_fill" d="M 38.223 1.2207e-07C 36.616 30.49 35.31 54.678 35.31 54.678L 1.51367e-05 89.988C 1.51367e-05 89.988 33.103 137.436 35.31 142.954C 37.517 148.471 65.103 155.092 70.62 151.782C 76.137 148.472 97.103 130.816 105.93 142.954C 114.758 155.092 109.24 165.023 123.585 169.437C 135.705 173.171 152.425 176.87 157.351 177.938C 157.422 168.122 157.448 159.038 158.375 153.9C 140.146 88.117 96.238 33.095 38.223 1.2207e-07Z"/>
<path id="path8_fill" d="M 41.2359 82.3668C 18.4616 82.3668 1.02623e-05 63.9231 1.02623e-05 41.1708L 1.02623e-05 10.9919C 1.02623e-05 4.92168 4.92646 -6.02329e-06 11.0026 -6.02329e-06L 71.4714 -6.02329e-06C 77.5475 -6.02329e-06 82.4739 4.92168 82.4739 10.9919L 82.4739 41.1708C 82.4739 63.9231 64.0103 82.3668 41.2359 82.3668Z"/>
<path id="path9_fill" d="M 50 25C 50 38.8071 38.8071 50 25 50C 11.1929 50 0 38.8071 0 25C 0 11.1929 11.1929 0 25 0C 38.8071 0 50 11.1929 50 25Z"/>
<path id="path10_fill" d="M 25 12.5C 25 19.4036 19.4036 25 12.5 25C 5.59644 25 0 19.4036 0 12.5C 0 5.59644 5.59644 0 12.5 0C 19.4036 0 25 5.59644 25 12.5Z"/>
</defs>
</svg>
